<?xml version="1.0" encoding="UTF-8"?>
<svg id="Layer_2" data-name="Layer 2" xmlns="http://www.w3.org/2000/svg" viewBox="0 0 2658.54 1044.53">
  <defs>
    <style>
      .cls-1 {
        fill: #2fb34b;
      }

      .cls-2 {
        fill: #2ab34b;
      }
    </style>
  </defs>
  <g id="Layer_1-2" data-name="Layer 1">
    <g>
      <path class="cls-2" d="M936.73,838.67c26.57-34.33,49.17-71.5,66.84-112.22,27.31-62.96,40.98-130.57,40.98-202.8s-13.67-137.03-40.98-200.01c-27.33-62.96-65.29-118.76-113.91-167.38-48.6-48.61-104.41-86.81-167.36-114.59C659.31,13.89,592.18,0,520.88,0s-139.82,13.89-202.79,41.67c-62.99,27.78-118.32,65.98-165.99,114.59-47.71,48.62-84.97,104.42-111.82,167.38C13.42,386.63,0,453.3,0,523.65s13.42,139.84,40.28,202.8c26.84,62.98,64.11,118.31,111.82,165.99,47.67,47.7,103,84.97,165.99,111.81,62.97,26.87,130.56,40.28,202.79,40.28,24.35,0,48.18-1.69,71.56-4.82h501.3v-201.04h-157.01ZM315.12,739.33c-27.27-28.13-48.5-60.59-63.63-97.41-15.17-36.79-22.73-75.97-22.73-117.53s7.34-80.72,22.08-117.53c14.7-36.79,35.5-69.04,62.33-96.76,26.83-27.69,58.01-49.35,93.52-64.93,35.48-15.59,74.03-23.38,115.58-23.38s80.07,7.79,115.58,23.38c35.5,15.59,66.45,37.24,92.87,64.93,26.4,27.72,47.18,59.97,62.33,96.76,15.14,36.81,22.73,75.97,22.73,117.53s-7.36,82.05-22.08,118.84c-14.74,36.81-35.06,69.06-61.03,96.76-25.98,27.72-56.51,49.35-91.57,64.93-35.06,15.59-72.96,23.38-113.65,23.38s-81.6-7.79-117.53-23.38c-35.93-15.59-67.54-37.44-94.81-65.58ZM600.96,522.27c0,43.46-35.23,78.69-78.69,78.69s-78.69-35.23-78.69-78.69,35.23-78.69,78.69-78.69,78.69,35.23,78.69,78.69Z"/>
      <path class="cls-1" d="M1716.31,58.34c-58-28.07-128.88-42.11-212.63-42.11h-307.91v182.76h346.58c35.46,0,63.68,6.08,84.68,18.19,20.99,12.14,36.6,27.07,46.88,44.79,10.25,17.73,17.01,35.23,20.29,52.48,3.27,17.27,4.91,31.03,4.91,41.28,0,13.08-2.59,28.48-7.7,46.19-5.14,17.73-13.54,34.77-25.2,51.08-11.67,16.34-27.76,29.87-48.28,40.59-20.54,10.74-46.18,16.1-76.97,16.1h-144.15v-201.04h-201.04v731.06h201.04v-328.98h142.76c66.28,0,122.2-10.35,167.76-31.07,45.56-20.71,81.91-48.09,109.07-82.15,27.15-34.05,46.94-72.01,59.38-113.91,12.42-41.88,18.63-83.54,18.63-124.95,0-69.95-15.19-130.48-45.56-181.57-30.38-51.09-74.55-90.65-132.55-118.74Z"/>
      <path class="cls-1" d="M2572.43,542.4c-23.15-22.68-49.3-41.67-78.48-56.94-29.16-15.28-58.58-28.48-88.21-39.59-32.41-12.02-63.66-25.46-93.76-40.28-30.09-14.8-54.65-31.71-73.61-50.7-18.99-18.97-28.49-40.5-28.49-64.59,0-35.18,12.51-61.57,37.52-79.17,24.99-17.58,59.24-26.39,102.79-26.39,35.18,0,72.91,6.94,113.19,20.84,40.28,13.89,79.87,31.49,118.76,52.78l76.39-154.18c-40.75-26.84-86.81-50-138.2-69.45-51.4-19.45-118.3-29.17-200.72-29.17-62.97,2.78-118.53,16.91-166.68,42.37-48.15,25.48-85.42,59.96-111.8,103.48-26.4,43.53-39.59,94.93-39.59,154.17,0,49.1,9.03,90.53,27.08,124.32,18.06,33.81,41.68,62.05,70.84,84.72,29.18,22.7,60.43,41.92,93.76,57.65,33.34,15.75,65.75,29.65,97.24,41.67,26.84,10.2,51.62,22.23,74.32,36.12,22.67,13.89,40.73,29.17,54.17,45.84,13.4,16.66,20.13,35.2,20.13,55.55,0,29.65-8.12,52.79-24.31,69.46-16.21,16.67-36.59,28.48-61.11,35.42-24.54,6.94-48.85,10.41-72.93,10.41s-50.47-3.69-79.17-11.11c-28.7-7.4-57.19-17.82-85.42-31.25-28.25-13.41-54.4-28.93-78.48-46.53l-88.9,156.96c36.12,25.01,73.62,45.62,112.51,61.81,38.89,16.22,78.48,28.26,118.76,36.12,40.28,7.86,79.87,11.81,118.76,11.81,75.93,0,139.8-13.65,191.69-40.97,51.85-27.31,91.19-63.2,118.07-107.65,26.84-44.45,40.28-92.59,40.28-144.46,0-49.06-6.94-90.5-20.85-124.31-13.89-33.8-32.41-62.03-55.56-84.73Z"/>
    </g>
  </g>
</svg>
